<?xml version="1.0" standalone="no"?>
<!DOCTYPE svg PUBLIC "-//W3C//DTD SVG 20010904//EN"
 "http://www.w3.org/TR/2001/REC-SVG-20010904/DTD/svg10.dtd">
<svg version="1.0" xmlns="http://www.w3.org/2000/svg"
 width="1024.000000pt" height="1024.000000pt" viewBox="0 0 1024.000000 1024.000000"
 preserveAspectRatio="xMidYMid meet">

<g transform="translate(0.000000,1024.000000) scale(0.100000,-0.100000)"
fill="#000000" stroke="none">
<path d="M0 5120 l0 -5120 5120 0 5120 0 0 5120 0 5120 -5120 0 -5120 0 0
-5120z m4463 3856 c-3 -6 -3 -8 2 -4 4 4 16 3 27 -3 14 -8 18 -17 14 -33 -7
-30 -56 -116 -65 -116 -4 0 -25 15 -47 34 l-39 34 19 34 c32 56 67 89 83 77 7
-6 10 -16 6 -23z m1347 7 c31 -36 60 -81 60 -93 0 -6 -6 -17 -12 -24 -19 -18
-68 -49 -72 -45 -17 21 -56 100 -56 114 0 21 37 65 55 65 6 0 17 -8 25 -17z
m-926 -131 c3 -5 8 -74 11 -153 5 -122 4 -141 -7 -122 -50 82 -117 203 -126
229 l-10 32 56 10 c32 5 60 10 64 11 4 0 9 -3 12 -7z m529 -18 c33 -6 38 -10
33 -28 -6 -26 -114 -223 -125 -230 -7 -5 -7 19 5 192 6 80 7 84 27 78 12 -3
39 -9 60 -12z m-239 -234 c30 -113 69 -258 85 -322 36 -135 78 -269 202 -643
49 -148 89 -276 89 -284 0 -9 -8 -11 -27 -6 -55 13 -140 28 -233 39 l-95 11
-2 33 c-1 17 3 30 8 26 15 -9 12 37 -35 481 -8 77 -18 178 -22 225 -4 47 -9
78 -11 70 -1 -8 -12 -139 -23 -290 -39 -512 -41 -534 -53 -542 -7 -4 -28 -8
-47 -8 -19 0 -77 -7 -129 -15 -52 -9 -96 -14 -98 -11 -6 5 56 288 107 496 35
141 105 437 191 807 18 78 34 141 35 140 1 -1 27 -94 58 -207z m1135 150 c28
-14 26 -45 -5 -108 l-26 -52 -33 27 c-19 16 -43 35 -55 43 -22 16 -23 13 15
117 4 13 56 -1 104 -27z m-2273 -6 c32 -76 29 -85 -29 -126 l-54 -36 -27 61
c-19 42 -25 67 -19 77 9 15 89 60 106 60 4 0 15 -16 23 -36z m1590 -189 c19
-146 8 -266 -36 -384 l-28 -76 4 74 c2 41 6 82 9 93 15 53 14 60 -5 25 -11
-21 -25 -35 -30 -32 -6 4 -10 -1 -10 -10 0 -9 -4 -14 -10 -10 -5 3 -7 13 -4
23 5 13 4 14 -4 3 -5 -7 -7 -21 -5 -31 7 -25 -76 -108 -88 -89 -8 13 -13 6
-10 -13 0 -4 -8 -6 -18 -5 -18 1 -18 3 -4 32 9 16 31 48 48 70 51 62 113 169
132 227 14 40 18 85 18 185 0 125 1 130 12 85 7 -26 20 -101 29 -167z m-990
73 c0 -134 19 -197 89 -298 46 -67 131 -160 146 -160 10 0 12 -34 3 -67 -7
-27 -24 -30 -25 -5 0 11 -2 12 -6 4 -6 -14 -10 -10 -112 112 -35 42 -66 74
-68 73 -2 -2 2 -27 8 -54 7 -28 9 -63 5 -79 l-8 -29 -13 25 c-7 14 -21 55 -31
90 -22 81 -25 320 -5 428 7 39 14 72 14 72 1 0 2 -51 3 -112z m1336 -48 c18
-44 22 -75 22 -160 0 -92 -4 -115 -31 -191 -39 -110 -129 -299 -141 -299 -6 0
-8 10 -4 22 3 14 2 19 -6 14 -19 -11 -14 3 9 27 19 20 20 21 13 2 -4 -11 -4
-17 0 -13 12 11 15 62 4 76 -6 7 -8 16 -4 19 4 4 11 2 15 -6 6 -10 10 -9 14 4
4 9 3 13 -3 10 -6 -3 -10 1 -10 10 0 14 -2 14 -13 3 -8 -7 -67 -62 -132 -123
-65 -60 -130 -122 -144 -137 -13 -16 -28 -28 -33 -28 -20 0 27 118 75 190 17
25 72 89 123 142 109 116 155 183 183 266 25 73 28 177 6 248 -8 27 -15 51
-15 54 1 13 52 -81 72 -130z m-1664 88 c-9 -16 -13 -65 -13 -148 0 -120 1
-128 32 -193 45 -95 80 -135 195 -229 113 -91 173 -162 224 -264 34 -68 35
-72 23 -120 -12 -50 -48 -130 -79 -174 -30 -43 -66 -114 -79 -152 -11 -35 -31
-52 -31 -28 0 6 -3 10 -8 10 -4 0 -7 -13 -7 -30 -1 -16 3 -30 7 -30 4 0 8 7 8
15 0 8 4 15 8 15 21 0 6 -31 -17 -37 -14 -3 -84 -33 -156 -65 -71 -32 -136
-58 -145 -58 -25 0 -271 56 -320 73 -34 12 -40 12 -25 2 11 -7 66 -49 122 -91
l102 -78 -31 -21 c-17 -11 -73 -58 -125 -104 -52 -46 -96 -82 -97 -80 -2 2
-18 46 -35 98 -58 170 -137 298 -257 412 -131 124 -212 164 -320 157 -35 -2
-61 -1 -56 3 35 31 191 39 287 13 33 -8 103 -35 155 -58 145 -67 147 -67 412
-60 l237 7 22 91 c26 111 29 269 6 372 -8 39 -38 120 -65 180 -64 142 -76 195
-69 308 6 98 32 188 72 248 27 41 44 52 23 16z m-767 -166 c55 -37 59 -45 52
-116 -3 -36 -11 -66 -16 -66 -6 0 -46 10 -90 21 l-79 22 7 36 c14 77 26 110
43 114 35 9 58 6 83 -11z m3227 12 c33 -7 44 -28 57 -110 6 -40 6 -41 -32 -52
-21 -6 -63 -17 -93 -25 l-56 -13 4 26 c2 14 -1 44 -6 67 -9 38 -7 44 17 66 26
24 60 46 72 47 4 0 20 -3 37 -6z m-382 -152 c41 -101 44 -208 10 -337 -44
-166 -146 -354 -265 -489 -29 -32 -50 -63 -48 -70 7 -23 102 -39 237 -40 l135
-1 90 38 c167 71 227 89 312 95 82 5 167 -10 180 -30 3 -6 -3 -7 -15 -4 -45
15 -119 8 -163 -14 -133 -68 -381 -364 -469 -560 -18 -41 -35 -77 -37 -79 -2
-3 -29 20 -61 51 -31 30 -83 75 -114 100 l-57 45 66 53 c37 30 96 73 131 97
36 24 62 43 60 43 -3 0 -25 -7 -49 -15 -57 -20 -278 -64 -332 -66 -32 -2 -67
10 -142 45 -55 27 -110 52 -122 57 -30 11 -29 18 13 80 51 75 111 144 206 238
44 45 77 81 72 81 -31 -1 -218 -151 -294 -236 l-55 -61 -28 51 c-51 91 -52
102 -11 184 66 131 145 193 342 272 108 43 185 93 249 164 99 108 151 263 120
354 -24 69 6 33 39 -46z m-2383 44 c34 -15 37 -19 37 -59 0 -23 -3 -52 -6 -64
l-6 -23 -33 28 c-48 39 -71 72 -80 111 -7 33 -7 34 21 28 16 -3 46 -13 67 -21z
m-499 -285 c26 -34 44 -61 40 -61 -4 0 1 -7 12 -15 37 -28 -4 -15 -79 27 -42
23 -77 45 -77 50 0 5 5 6 12 2 7 -4 8 -3 4 5 -9 13 21 64 32 57 5 -3 30 -32
56 -65z m3326 -13 c0 -4 -30 -22 -67 -40 -90 -44 -87 -43 -77 -27 6 11 3 10
-11 -1 -38 -31 -8 10 54 76 l64 67 18 -34 c10 -19 18 -37 19 -41z m-2989 -34
c34 -9 70 -19 78 -23 198 -93 332 -180 313 -204 -5 -7 -13 -33 -16 -59 -4 -27
-10 -48 -13 -48 -3 0 -47 40 -97 89 -98 97 -189 171 -180 147 3 -9 14 -18 25
-21 10 -4 19 -15 19 -26 0 -11 5 -17 10 -14 9 6 15 -8 11 -29 -1 -5 6 -17 15
-27 16 -18 16 -19 -2 -19 -13 0 -15 -3 -7 -8 7 -4 15 -24 18 -42 5 -28 1 -23
-21 25 -46 104 -112 186 -193 239 -59 40 -52 44 40 20z m-842 -20 c25 -15 47
-28 49 -29 5 -4 -21 -55 -28 -55 -3 0 -28 7 -54 16 -41 14 -47 20 -42 38 3 11
6 29 6 39 0 23 15 22 69 -9z m4310 -11 c6 -21 7 -40 3 -44 -9 -7 -93 -32 -95
-27 -1 2 -8 14 -15 26 -7 13 -12 25 -10 27 7 8 94 55 100 55 4 0 12 -17 17
-37z m-1474 -3 c3 -6 -1 -7 -9 -4 -18 7 -21 14 -7 14 6 0 13 -4 16 -10z
m-2295 -211 c119 -19 329 -106 314 -131 -5 -7 -2 -9 7 -6 8 3 21 -2 29 -10 13
-14 12 -15 -3 -9 -20 8 -22 -3 -4 -22 6 -7 -4 -4 -24 7 -20 11 -42 17 -48 12
-10 -5 -9 -9 3 -13 9 -4 16 -11 16 -18 0 -6 -7 -8 -17 -5 -14 6 -14 4 2 -16
11 -13 20 -24 21 -26 1 -2 4 4 8 13 3 9 2 13 -4 10 -6 -3 -10 -2 -10 4 0 22
18 19 41 -7 13 -14 16 -20 6 -12 -17 12 -20 12 -29 -3 -9 -16 -14 -14 -51 20
-23 21 -41 41 -40 45 2 4 -3 5 -10 2 -7 -2 -22 4 -32 16 -10 11 -24 20 -31 20
-7 0 -16 5 -20 12 -5 7 -3 8 6 3 9 -5 11 -4 6 4 -4 6 -11 9 -16 6 -4 -3 -37
11 -72 31 -34 20 -93 46 -130 57 -37 12 -68 25 -68 30 0 7 30 4 150 -14z
m3338 2 c9 -5 0 -10 -26 -14 -57 -7 -184 -70 -270 -134 -66 -49 -99 -60 -89
-30 5 16 -23 36 -53 37 -23 1 -23 2 -5 10 11 5 16 9 10 10 -17 1 106 61 178
87 38 13 101 27 140 32 100 12 100 12 115 2z m-2828 -65 c0 -2 -8 -10 -17 -17
-16 -13 -17 -12 -4 4 13 16 21 21 21 13z m-1027 -92 c40 -9 76 -19 80 -24 4
-4 -9 -20 -30 -35 -21 -15 -59 -48 -84 -72 l-46 -44 -21 73 c-12 40 -22 83
-22 96 0 27 22 29 123 6z m3424 0 c-3 -3 -12 -4 -19 -1 -8 3 -5 6 6 6 11 1 17
-2 13 -5z m893 -17 c0 -22 -27 -123 -37 -140 -5 -9 -37 15 -106 80 -26 25 -46
47 -43 50 8 8 117 31 154 32 27 1 32 -2 32 -22z m-853 -17 c9 -12 8 -20 -4
-35 -15 -19 -15 -19 -9 8 5 23 3 27 -16 28 -22 0 -22 1 -3 8 11 5 20 8 20 7 1
0 6 -8 12 -16z m-497 6 c0 -2 -12 -11 -27 -20 l-28 -17 24 20 c23 21 31 25 31
17z m-803 -148 c-3 -8 -6 -5 -6 6 -1 11 2 17 5 13 3 -3 4 -12 1 -19z m-2536
-75 c6 -16 13 -40 16 -54 5 -27 9 -24 -112 -75 -12 -5 -49 89 -43 108 4 11 88
46 116 47 7 1 17 -11 23 -26z m5082 -15 c14 -7 17 -16 13 -36 -12 -50 -28 -82
-43 -82 -11 0 -109 45 -121 56 -3 2 1 20 23 91 3 9 17 8 57 -3 29 -9 61 -21
71 -26z m-4643 -97 c14 -28 30 -43 55 -51 48 -16 50 -25 10 -49 -31 -18 -35
-25 -35 -61 l0 -40 -37 19 c-34 17 -43 17 -83 5 -24 -7 -45 -12 -47 -11 -1 2
3 20 9 40 10 33 9 42 -10 76 -28 49 -27 51 2 51 36 0 78 18 93 40 8 11 16 20
18 20 3 0 14 -18 25 -39z m4134 4 c19 -18 36 -25 66 -25 46 0 48 -5 19 -55
-18 -31 -20 -41 -11 -76 10 -39 9 -41 -11 -35 -58 17 -76 17 -105 2 -44 -22
-49 -20 -44 18 3 29 -1 38 -27 57 -17 12 -31 26 -31 30 0 4 17 16 38 26 23 11
42 30 51 51 17 39 23 39 55 7z m-3823 -70 c61 -12 119 -30 119 -37 0 -4 3 -7
8 -6 4 1 19 -2 35 -7 22 -6 25 -10 16 -21 -9 -11 -16 -11 -41 2 -17 9 -27 11
-24 5 9 -14 -10 -14 -36 0 -16 9 -19 8 -13 -1 4 -7 -6 -2 -23 10 -17 13 -29
27 -26 31 3 5 -1 6 -8 4 -8 -3 -25 7 -38 22 -14 15 -18 22 -9 15 10 -7 28 -15
40 -17z m3514 3 c-5 -13 -19 -22 -120 -81 -45 -27 -48 -27 -30 -7 l20 23 -23
-12 c-18 -9 -27 -10 -37 -1 -8 6 -24 9 -37 6 -49 -12 71 39 142 60 90 27 91
27 85 12z m-1700 -39 c207 -18 404 -70 580 -153 99 -47 148 -83 170 -127 18
-34 65 -223 65 -261 0 -16 -5 -28 -10 -28 -6 0 -47 -17 -91 -37 -81 -37 -81
-37 -148 -25 -303 56 -566 81 -838 82 l-163 0 2 -52 1 -53 6 45 c6 44 6 44 15
15 15 -57 14 -64 -15 -94 -16 -17 -29 -34 -29 -38 0 -3 -30 -38 -67 -77 -181
-190 -315 -345 -308 -355 6 -12 45 -203 45 -225 0 -8 -17 -18 -37 -24 -22 -6
-29 -10 -17 -11 22 -1 20 5 70 -211 13 -57 24 -108 24 -113 0 -5 -53 -33 -117
-63 -229 -107 -288 -137 -319 -160 l-31 -23 -48 102 c-27 56 -63 145 -81 197
-19 52 -37 96 -41 97 -5 1 -26 -11 -48 -27 -22 -16 -69 -49 -105 -73 -36 -25
-82 -60 -102 -79 l-38 -35 -7 36 c-4 20 -8 113 -8 206 1 136 5 193 23 284 31
152 65 258 118 366 67 134 61 129 122 104 52 -22 60 -39 18 -39 -27 0 -79 -37
-70 -51 3 -5 2 -8 -3 -7 -11 4 -58 -40 -51 -48 4 -3 26 5 50 18 23 13 59 25
78 26 l35 3 -62 -60 c-62 -60 -85 -93 -97 -144 l-7 -29 63 43 c35 24 78 56 96
73 40 38 42 22 2 -22 -16 -18 -30 -37 -30 -43 0 -5 -4 -9 -10 -9 -10 0 -60
-80 -60 -96 0 -5 5 -2 10 6 6 10 10 11 10 3 0 -25 19 -12 36 25 10 20 32 60
51 88 18 28 33 61 33 73 0 12 4 19 10 16 18 -11 10 -46 -25 -106 -39 -68 -42
-77 -18 -58 13 10 11 6 -4 -16 -12 -17 -23 -51 -25 -75 -3 -39 0 -45 16 -45
11 0 21 6 24 14 3 8 0 11 -7 7 -13 -9 -14 8 -2 32 5 9 21 49 36 87 15 39 33
84 40 100 l14 30 0 -35 c1 -19 3 -62 6 -95 l4 -60 -14 48 c-7 27 -16 51 -19
55 -11 10 -6 -24 10 -72 9 -25 14 -62 12 -81 -3 -24 0 -35 9 -35 28 0 36 43
31 170 -3 69 -4 116 -1 105 2 -11 8 -29 13 -40 5 -11 19 -47 31 -80 28 -76 49
-109 61 -97 6 6 4 19 -5 33 -15 23 -68 171 -67 187 1 4 15 -20 32 -53 19 -37
33 -54 36 -45 15 49 77 45 98 -6 8 -19 19 -34 24 -34 37 0 7 106 -47 169 -19
23 -33 44 -30 47 3 3 43 -13 89 -35 84 -41 128 -51 128 -30 0 18 -53 81 -95
112 -27 19 -32 27 -17 22 15 -4 42 2 77 16 l55 23 25 -24 c31 -29 41 -21 21
18 -11 21 -29 35 -60 45 -24 8 -47 13 -50 10 -9 -9 -116 -11 -116 -2 0 5 11 9
25 9 28 0 58 17 121 67 30 24 51 33 78 33 39 0 45 10 20 34 -17 17 -47 20 -79
6 -18 -8 -18 -9 -2 -9 24 -1 -78 -86 -129 -107 -39 -16 -61 -9 -30 10 10 6 46
33 80 61 57 47 59 50 36 55 -19 5 -26 2 -28 -12 -4 -23 -78 -78 -104 -78 -24
0 -23 15 4 34 28 20 44 21 28 1 -20 -24 -5 -18 16 7 12 13 13 18 4 13 -8 -5 5
13 30 39 25 26 64 59 87 72 50 30 50 60 -1 50 -44 -9 -59 -28 -16 -20 26 4 31
3 20 -5 -8 -6 -22 -11 -30 -11 -17 0 -62 -41 -98 -89 -13 -17 -34 -34 -48 -37
-13 -3 -24 -10 -24 -16 0 -5 -4 -6 -10 -3 -14 9 -13 26 2 22 6 -1 35 45 64
103 43 86 60 109 91 127 34 21 36 23 13 22 -32 0 -63 -17 -88 -49 -21 -27 -72
-144 -72 -166 0 -14 -18 -29 -26 -21 -3 2 4 28 16 56 11 28 20 71 20 94 0 24
7 52 15 63 22 29 18 36 -10 18 -14 -9 -25 -23 -25 -30 0 -8 -4 -14 -10 -14 -5
0 -10 -6 -10 -14 0 -7 -7 -19 -15 -26 -17 -14 -21 -35 -4 -24 8 5 9 -6 4 -37
-12 -72 -24 -81 -25 -16 0 31 -4 57 -10 57 -5 0 -12 16 -16 35 -6 34 -17 44
-28 27 -3 -5 -6 -30 -7 -58 -2 -53 -18 -114 -31 -114 -4 0 -8 6 -8 14 0 8 -11
23 -25 34 -14 11 -25 24 -25 30 0 20 230 231 310 284 224 147 477 232 780 261
68 7 86 7 205 -4z m-1692 -46 c2 6 7 9 11 6 4 -3 0 -11 -7 -17 -10 -9 -18 -8
-33 4 -18 14 -18 15 3 5 16 -8 23 -8 26 2z m92 -3 c-27 -12 -43 -12 -25 0 8 5
22 9 30 9 10 0 8 -3 -5 -9z m-60 -30 c3 -6 -1 -7 -9 -4 -18 7 -21 14 -7 14 6
0 13 -4 16 -10z m-803 -168 l38 -63 -37 -32 c-21 -17 -56 -48 -78 -68 l-39
-37 -33 74 c-31 71 -32 76 -17 99 9 14 19 25 23 25 3 0 21 14 39 31 18 17 37
27 44 23 7 -5 8 -3 3 6 -5 8 -3 11 6 8 7 -2 30 -32 51 -66z m4847 12 c50 -45
60 -60 55 -78 -8 -27 -56 -136 -60 -136 -1 0 -34 32 -73 71 l-70 71 26 51 c28
57 42 77 53 77 3 0 35 -25 69 -56z m-4325 10 c9 -8 16 -20 16 -25 0 -5 -9 0
-20 11 -12 12 -32 20 -52 19 -31 -1 -32 -1 -8 -9 31 -10 13 -12 -30 -4 -22 5
-28 9 -18 15 22 15 95 10 112 -7z m3813 9 c12 -5 -4 -12 -52 -23 -70 -16 -100
-16 -89 1 3 5 -4 9 -15 9 -11 0 -22 4 -26 9 -6 11 156 14 182 4z m-3750 -49
c-3 -3 -12 -4 -19 -1 -8 3 -5 6 6 6 11 1 17 -2 13 -5z m3590 0 c-3 -3 -12 -4
-19 -1 -8 3 -5 6 6 6 11 1 17 -2 13 -5z m-3540 -10 c-3 -3 -12 -4 -19 -1 -8 3
-5 6 6 6 11 1 17 -2 13 -5z m3496 -1 c-7 -2 -19 -2 -25 0 -7 3 -2 5 12 5 14 0
19 -2 13 -5z m-3048 -72 c15 -29 14 -29 -48 -95 l-62 -65 -245 -7 -245 -7 95
-17 c130 -24 320 -70 320 -78 0 -12 -100 -157 -100 -146 0 6 -6 11 -13 11 -42
0 -298 164 -401 257 l-59 53 174 27 c211 33 502 85 508 91 2 3 17 5 32 5 21 0
32 -7 44 -29z m2384 -118 c115 -114 165 -171 215 -249 95 -147 158 -268 149
-289 -4 -12 -3 -16 4 -12 13 8 27 -39 17 -55 -5 -7 -2 -8 6 -3 10 6 12 3 8
-13 -4 -12 -3 -20 2 -17 4 2 17 -30 29 -73 12 -42 26 -88 31 -102 38 -108 44
-399 12 -570 -26 -139 -36 -176 -48 -173 -9 3 -127 45 -132 48 -1 1 -9 50 -17
110 -15 108 -47 274 -65 335 -8 27 -3 56 27 154 49 166 55 277 21 363 -21 51
-22 60 -9 56 9 -3 6 2 -6 11 -12 9 -48 51 -79 94 -32 42 -75 96 -97 119 -36
38 -39 44 -26 60 13 16 12 17 -2 5 -14 -10 -23 -7 -59 23 -23 19 -49 39 -56
43 -8 5 -28 60 -44 123 -17 62 -34 124 -40 137 -5 12 -6 22 0 22 5 0 76 -66
159 -147z m261 137 c38 -10 406 -72 535 -90 156 -21 150 -19 129 -38 -140
-129 -433 -321 -462 -303 -12 7 -105 142 -100 145 10 7 288 70 359 81 l84 13
-95 1 c-52 1 -171 6 -265 11 l-170 10 -51 57 -51 57 20 33 c21 37 19 36 67 23z
m-3670 -11 c0 -6 12 -27 27 -47 15 -20 45 -62 67 -92 22 -30 89 -105 148 -166
59 -61 108 -116 108 -122 0 -7 4 -11 8 -10 4 2 27 -13 49 -33 33 -27 41 -40
36 -57 -3 -12 -9 -22 -14 -22 -5 0 -6 -6 -3 -14 5 -13 -18 -45 -102 -136 -173
-187 -303 -393 -319 -503 -4 -26 -11 -50 -17 -53 -5 -3 -34 19 -64 50 -31 31
-58 56 -61 56 -3 0 -3 -13 -1 -29 2 -17 1 -28 -4 -25 -4 3 -8 1 -8 -5 0 -5 4
-13 10 -16 5 -3 15 -16 21 -28 11 -22 11 -22 -7 -2 -44 46 -83 103 -76 109 4
4 1 6 -7 4 -7 -2 -16 3 -19 11 -3 9 0 11 9 6 8 -5 11 -4 6 1 -5 5 -10 7 -13 4
-6 -9 -35 40 -29 49 3 5 0 13 -6 17 -8 5 -10 2 -5 -7 4 -8 -1 -3 -12 10 -11
13 -29 54 -42 90 -12 36 -30 84 -40 106 -34 76 -69 203 -80 289 -13 96 -5 150
30 208 26 43 25 60 -1 28 -38 -47 -77 -141 -84 -203 -6 -54 -12 -68 -49 -107
-79 -84 -131 -200 -162 -357 -9 -46 -20 -83 -24 -83 -4 0 -21 27 -39 59 -24
45 -31 71 -31 112 0 157 164 499 356 740 l61 77 61 -67 60 -68 120 119 c114
111 142 133 142 107z m4755 -109 l120 -120 43 47 c24 26 48 55 53 65 13 25 24
23 54 -9 121 -128 314 -475 369 -662 25 -85 21 -166 -12 -230 -32 -64 -52 -76
-52 -33 0 55 -49 222 -85 292 -21 38 -58 93 -84 123 -39 44 -47 61 -49 98 -2
24 -8 60 -14 79 -11 36 -87 155 -94 148 -2 -3 9 -29 24 -59 23 -47 27 -66 27
-144 0 -106 -18 -179 -87 -355 -56 -141 -92 -211 -149 -287 -44 -58 -54 -64
-64 -32 -4 12 -10 18 -14 13 -3 -5 -12 -9 -18 -9 -7 0 -13 -3 -13 -7 0 -5 0
-13 0 -20 0 -6 9 -3 20 7 18 16 20 16 20 2 0 -10 -7 -17 -15 -17 -8 0 -15 -5
-15 -12 0 -6 -6 -3 -14 8 -8 10 -18 16 -22 12 -4 -4 -1 -14 5 -22 8 -10 9 -16
1 -21 -6 -3 -8 -11 -5 -16 4 -5 1 -9 -5 -9 -7 0 -9 8 -5 20 7 23 -1 26 -21 6
-17 -17 -18 -36 -3 -36 6 0 9 -6 6 -14 -3 -8 -2 -16 3 -18 5 -2 3 -11 -5 -21
-11 -16 -13 -16 -19 -2 -4 11 -2 14 6 9 8 -5 9 -1 4 12 -4 10 -16 56 -26 101
-34 145 -127 306 -258 445 -21 22 -31 41 -27 49 5 7 4 10 -2 6 -6 -4 -40 25
-76 63 -51 54 -66 78 -69 107 -3 24 1 43 9 51 18 18 16 23 -4 15 -21 -8 31 36
65 55 13 7 28 10 35 7 7 -3 4 0 -5 7 -15 11 -6 23 77 105 80 79 201 227 246
301 8 12 16 22 19 22 3 0 59 -54 125 -120z m-3444 -71 c-5 -30 -9 -42 -10 -28
-1 30 10 92 15 86 3 -2 0 -28 -5 -58z m-2087 -69 c20 -22 34 -44 32 -49 -3 -4
-10 -20 -16 -35 l-10 -27 -37 27 c-43 31 -123 105 -123 114 0 3 9 20 20 38
l20 33 39 -30 c21 -17 55 -49 75 -71z m6296 65 c20 -32 20 -35 4 -60 -23 -35
-135 -118 -146 -107 -5 5 -11 24 -14 43 -5 32 -1 39 59 97 36 34 68 62 70 62
3 0 15 -16 27 -35z m-4273 -52 c1 -32 -2 -64 -7 -73 -6 -10 -9 10 -10 58 0 85
15 99 17 15z m-132 -49 c22 -46 24 -58 13 -65 -19 -12 -23 -11 -43 11 -15 17
-16 22 -4 37 10 15 10 16 0 6 -15 -13 -41 -7 -41 11 0 15 29 56 40 56 5 0 21
-25 35 -56z m85 1 c0 -19 -4 -35 -8 -35 -4 0 -6 16 -4 35 2 19 6 35 8 35 2 0
4 -16 4 -35z m-50 -10 c0 -5 -5 -3 -10 5 -5 8 -10 20 -10 25 0 6 5 3 10 -5 5
-8 10 -19 10 -25z m17 -27 c-3 -8 -6 -5 -6 6 -1 11 2 17 5 13 3 -3 4 -12 1
-19z m-97 -80 c0 -12 -8 -18 -22 -19 -13 0 -42 -2 -65 -4 -24 -2 -43 0 -43 4
0 9 28 51 53 79 l21 22 27 -32 c16 -18 28 -41 29 -50z m-1982 -89 c-30 -38
-32 -38 -52 -22 -57 47 -106 99 -106 112 0 8 12 27 26 42 l27 28 68 -61 68
-61 -31 -38z m2209 149 c25 -34 31 -86 14 -136 -24 -69 -42 -94 -97 -131 -87
-57 -144 -33 -144 62 0 45 4 57 29 81 25 24 31 26 55 15 31 -14 34 -29 7 -29
-21 0 -51 -35 -51 -60 0 -12 2 -12 9 -1 5 8 16 11 30 6 12 -3 18 -11 15 -17
-4 -7 -2 -8 4 -4 20 12 13 36 -10 36 -22 1 -22 1 -4 15 17 13 21 13 31 -2 11
-14 12 -14 17 4 4 14 -4 32 -22 53 l-27 32 -44 -22 -44 -23 28 26 c15 14 27
31 27 36 0 6 24 24 53 41 54 31 108 39 124 18z m4367 -27 c35 -36 28 -52 -50
-116 l-57 -46 -18 30 c-9 16 -23 31 -31 34 -9 4 9 26 51 66 35 34 67 61 70 61
4 0 20 -13 35 -29z m-3389 9 c128 -12 366 -51 361 -59 -2 -3 15 -6 37 -7 70
-1 114 -21 126 -56 6 -17 8 -35 4 -41 -4 -6 -1 -7 7 -2 10 6 12 4 7 -8 -3 -10
-2 -17 4 -17 6 0 9 -8 7 -17 -2 -10 4 -27 14 -37 14 -16 122 -274 143 -344 7
-26 -53 -156 -87 -184 -11 -10 -17 -18 -14 -18 9 0 -38 -89 -68 -130 -30 -40
-62 -52 -216 -81 -248 -46 -485 -56 -605 -25 -109 28 -194 57 -201 67 -3 5
-14 9 -25 9 -10 0 -19 2 -19 3 0 2 -12 55 -26 118 -14 63 -36 172 -49 244 -23
122 -23 130 -7 150 26 30 208 227 311 335 50 52 91 98 91 103 0 10 83 9 205
-3z m780 -30 c-33 -16 -90 -41 -127 -55 -38 -15 -73 -34 -78 -43 -10 -15 -10
-15 -8 1 2 12 41 34 128 72 132 57 186 73 85 25z m195 10 c-50 -39 -264 -129
-277 -117 -10 11 250 136 282 136 18 1 18 -1 -5 -19z m-2195 -69 c10 -18 -15
-22 -37 -7 l-22 16 26 0 c15 0 29 -4 33 -9z m462 -26 c-9 -28 -167 -30 -167
-2 0 8 26 12 85 12 52 0 84 -4 82 -10z m-487 -53 c0 -4 -18 -13 -40 -19 -33
-8 -38 -8 -29 3 9 11 20 15 62 23 4 0 7 -3 7 -7z m373 -26 c54 -34 114 -92
106 -101 -3 -2 -45 19 -94 47 -76 43 -92 49 -108 38 -18 -11 -18 -9 2 19 12
17 27 31 32 31 6 0 33 -15 62 -34z m1562 -189 c48 -103 95 -193 103 -200 15
-12 116 -51 285 -109 49 -17 86 -32 84 -34 -4 -4 -58 14 -297 97 l-95 33 -49
110 c-27 61 -67 148 -88 194 -32 69 -48 117 -34 101 2 -2 43 -88 91 -192z
m-1956 79 c-86 -81 -109 -100 -109 -90 0 18 78 104 83 92 4 -8 6 -7 6 4 1 19
51 59 65 51 5 -3 -16 -29 -45 -57z m303 12 c25 -29 53 -69 63 -88 l18 -35 -54
49 c-80 72 -99 95 -93 111 9 24 19 18 66 -37z m-28 -80 c-9 -15 -21 -9 -35 20
-23 47 -23 48 9 18 17 -16 29 -33 26 -38z m-1749 -47 c9 -35 27 -93 40 -128
14 -35 27 -86 31 -113 4 -28 10 -50 15 -50 5 0 9 5 9 11 0 23 32 -16 81 -99
62 -105 99 -153 198 -262 79 -87 97 -115 80 -124 -5 -2 -4 -3 3 -2 7 2 12 9
11 15 -4 17 0 14 38 -26 18 -20 29 -33 22 -29 -27 15 -19 -13 10 -34 25 -18
29 -19 17 -5 -14 18 -14 18 12 0 25 -18 41 -44 18 -30 -5 3 -7 0 -5 -8 3 -7
-8 -31 -24 -54 -16 -22 -36 -54 -45 -72 -16 -30 -17 -31 -44 -16 -84 48 -189
131 -369 293 -51 46 -99 81 -106 79 -7 -3 -5 -6 6 -6 9 -1 17 -6 17 -12 0 -5
-4 -7 -10 -4 -6 3 -7 -1 -4 -9 3 -9 10 -16 16 -16 5 0 6 5 2 12 -4 7 -3 8 4 4
6 -4 8 -14 5 -23 -5 -13 -2 -15 13 -9 14 5 16 4 8 -4 -9 -9 -17 -9 -32 -1 -10
6 -23 7 -27 3 -5 -4 -5 1 -2 11 4 10 3 16 -2 13 -9 -6 -93 44 -128 77 -13 11
-23 15 -23 9 0 -6 12 -19 28 -29 28 -18 58 -41 133 -104 24 -21 55 -46 69 -58
14 -11 19 -20 13 -21 -7 0 -13 5 -13 11 0 5 -3 8 -7 6 -13 -8 -157 97 -243
177 l-45 41 3 130 c4 220 28 326 95 426 55 82 78 109 89 103 4 -3 8 1 8 8 1
24 18 -15 35 -81z m5602 66 c13 5 15 2 10 -11 -4 -10 -3 -15 3 -11 12 7 66
-66 91 -123 39 -89 61 -236 57 -385 l-3 -139 -36 -31 c-54 -48 -79 -67 -79
-61 0 3 -24 -13 -52 -35 -29 -22 -57 -44 -63 -48 -5 -5 -23 -16 -40 -27 l-30
-18 25 24 c14 13 57 50 95 82 121 100 144 121 145 128 0 4 -33 -18 -74 -49
-41 -30 -76 -54 -78 -52 -3 2 -12 -4 -22 -13 -23 -24 -44 -23 -23 0 10 10 17
23 17 28 0 5 -4 5 -8 -1 -4 -5 -23 -23 -42 -40 -29 -25 -32 -26 -15 -5 43 54
64 72 77 64 7 -4 10 -4 6 1 -4 4 -2 17 4 29 6 11 -25 -13 -68 -55 -141 -137
-291 -263 -363 -307 -39 -23 -75 -42 -79 -42 -13 1 -73 101 -66 112 4 6 3 8
-3 5 -6 -4 -16 0 -23 8 -7 8 -9 15 -4 15 5 0 2 5 -6 10 -12 7 1 24 64 82 44
40 84 73 90 73 6 1 10 7 8 15 -2 7 19 36 46 64 83 86 147 170 218 285 37 60
72 107 78 104 5 -4 7 1 3 10 -3 9 7 45 22 79 16 35 41 101 55 147 30 94 38
111 43 94 3 -7 12 -9 20 -6z m-3980 -89 c-3 -7 -5 -2 -5 12 0 14 2 19 5 13 2
-7 2 -19 0 -25z m2959 -20 c6 -10 4 -11 -7 0 -7 6 -17 12 -23 12 -5 0 -1 -6 9
-14 11 -8 23 -12 27 -10 12 8 81 -64 73 -76 -3 -6 -3 -10 2 -9 21 4 24 -2 12
-18 -13 -16 -12 -17 3 -5 15 12 23 5 71 -60 29 -40 74 -109 99 -152 l46 -79
-71 -47 c-51 -34 -76 -44 -85 -37 -10 8 -9 12 3 21 13 9 11 11 -10 12 -15 1
-22 -2 -18 -9 3 -6 1 -7 -6 -3 -6 4 -9 11 -6 16 9 14 -16 90 -29 90 -6 0 -4 5
4 10 13 8 12 10 -2 10 -20 0 -25 20 -5 20 6 1 -3 9 -22 19 -21 11 -30 21 -23
25 9 5 8 12 0 26 -7 10 -15 17 -19 14 -4 -2 -15 16 -26 41 -10 25 -24 45 -30
45 -8 0 -13 13 -13 29 0 17 -4 33 -10 36 -5 3 -8 20 -7 38 2 20 -4 42 -16 59
-29 39 -14 52 33 28 21 -11 42 -25 46 -32z m-3541 -12 c-4 -22 -12 -45 -17
-51 -7 -7 -8 -3 -3 13 4 14 2 22 -5 22 -6 0 -9 4 -6 9 3 5 0 14 -8 20 -10 9
-17 7 -27 -6 -13 -16 -12 -17 3 -5 10 8 19 9 22 3 4 -5 -2 -15 -11 -21 -17
-10 -17 -10 0 -8 16 3 19 -5 22 -52 2 -33 0 -45 -4 -30 -5 17 -9 21 -15 12 -4
-6 -5 -16 -1 -21 3 -6 -2 -14 -10 -19 -9 -4 -17 -18 -18 -30 -1 -12 -7 -22
-15 -22 -7 0 -10 -5 -7 -10 4 -6 -1 -22 -10 -36 -9 -14 -14 -28 -12 -30 6 -7
-41 -54 -53 -54 -5 0 -7 -6 -4 -14 3 -8 -1 -20 -9 -27 -12 -12 -12 -16 2 -27
9 -7 11 -11 4 -8 -6 4 -14 2 -18 -4 -3 -6 4 -14 17 -19 23 -10 23 -10 1 -10
-27 -1 -41 -21 -16 -22 13 -1 11 -3 -7 -9 -18 -6 -20 -8 -7 -9 10 -1 15 -6 12
-11 -4 -6 -16 -8 -28 -4 -12 4 -29 7 -38 8 -19 1 -119 67 -119 78 0 11 63 112
72 116 4 2 8 8 8 14 0 17 71 109 80 103 4 -3 7 3 6 13 0 9 5 16 12 14 8 -1 11
1 8 6 -7 12 93 124 105 116 5 -3 8 0 7 6 -3 13 73 60 85 53 5 -3 5 -24 2 -47z
m398 19 c-3 -9 -8 -14 -10 -11 -3 3 -2 9 2 15 9 16 15 13 8 -4z m184 -72 c-3
-10 -5 -4 -5 12 0 17 2 24 5 18 2 -7 2 -21 0 -30z m-640 -130 c-3 -10 -5 -4
-5 12 0 17 2 24 5 18 2 -7 2 -21 0 -30z m3029 -168 c13 -17 39 -141 63 -300
17 -108 16 -111 -4 -150 -24 -48 -138 -158 -254 -243 -48 -36 -77 -64 -69 -67
15 -5 314 -55 330 -55 13 0 3 -87 -17 -154 -8 -26 -27 -65 -42 -87 l-28 -40
-85 6 c-145 10 -196 18 -175 25 17 6 16 7 -7 12 -15 3 -25 1 -22 -3 7 -12 -9
-11 -43 2 -22 8 -24 12 -13 20 10 6 4 7 -20 3 -28 -4 -32 -3 -20 6 12 9 11 10
-6 5 -13 -3 -38 4 -65 20 -24 13 -36 25 -27 25 9 0 20 -4 23 -10 3 -5 11 -10
18 -10 20 0 -7 20 -40 29 -30 9 -31 8 -27 -17 3 -19 2 -23 -5 -13 -5 8 -7 25
-5 39 3 16 1 23 -8 20 -23 -8 -70 74 -208 359 l-73 152 17 36 c10 19 21 33 26
30 5 -3 12 0 16 6 4 8 3 9 -4 5 -20 -12 -13 5 28 70 22 35 40 66 40 70 0 3 17
36 39 72 21 37 61 110 89 162 27 52 58 109 67 125 l18 31 241 -83 c132 -45
246 -89 252 -98z m541 163 c-3 -8 -6 -5 -6 6 -1 11 2 17 5 13 3 -3 4 -12 1
-19z m-3663 -287 c3 -5 -1 -14 -8 -20 -10 -9 -16 -9 -21 -1 -4 6 -3 10 2 9 20
-3 27 2 13 11 -9 6 -10 10 -3 10 6 0 14 -4 17 -9z m-74 -22 c0 -5 8 -6 18 -3
14 5 14 4 3 -4 -10 -7 -21 -7 -32 -1 -26 14 -32 28 -9 22 11 -3 20 -9 20 -14z
m605 -9 c-3 -5 -13 -7 -23 -4 -15 5 -15 5 1 -6 9 -6 22 -8 27 -5 6 3 10 -1 10
-9 0 -9 -4 -16 -10 -16 -5 0 -6 -7 -3 -17 4 -11 3 -14 -5 -9 -7 4 -12 15 -12
24 -1 15 -3 14 -16 -3 -15 -19 -15 -18 -12 13 2 18 10 37 18 42 16 10 33 3 25
-10z m3310 10 c3 -6 -1 -7 -9 -4 -18 7 -21 14 -7 14 6 0 13 -4 16 -10z m-5001
-45 c4 -20 4 -56 0 -81 l-6 -45 -86 7 c-57 5 -83 4 -79 -3 4 -6 41 -32 82 -58
41 -26 75 -52 75 -56 0 -5 6 -9 14 -9 8 0 16 -6 19 -14 3 -8 25 -20 49 -27 68
-18 98 -31 98 -41 0 -5 5 -6 10 -3 6 3 10 1 10 -6 0 -7 3 -10 6 -6 3 3 32 -8
64 -24 31 -16 60 -29 64 -29 15 0 85 -53 80 -61 -3 -5 5 -21 16 -37 16 -21 22
-45 23 -93 2 -81 -14 -123 -48 -125 -14 -1 -25 2 -25 7 0 5 -8 9 -17 9 -13 0
-14 -3 -5 -12 16 -16 15 -29 -2 -22 -21 8 -30 -28 -10 -43 21 -15 38 -17 29
-3 -3 6 -13 10 -21 10 -8 0 -14 5 -14 10 0 6 5 10 11 10 14 0 39 -25 39 -39 0
-6 4 -11 9 -11 5 0 11 -51 13 -112 3 -66 12 -132 21 -158 9 -24 15 -45 14 -47
-2 -1 -59 -14 -127 -28 -111 -23 -390 -93 -569 -142 -37 -10 -76 -29 -93 -45
l-28 -26 0 -231 0 -231 29 -32 c26 -30 36 -33 98 -38 l68 -5 3 -579 2 -578 23
6 c113 35 379 96 649 150 180 36 330 66 333 66 3 0 5 -11 5 -25 0 -41 65 -94
216 -177 278 -153 546 -272 879 -390 301 -106 715 -222 992 -278 137 -27 144
-27 225 -14 205 35 593 142 922 253 360 122 635 242 949 412 217 118 247 142
247 199 0 12 7 20 16 20 62 0 895 -180 1042 -225 22 -7 22 -6 22 87 0 135 -35
494 -75 768 -44 296 -44 296 -4 304 51 10 96 36 108 62 7 16 11 104 11 253 0
255 0 254 -77 286 -64 27 -454 135 -547 151 -50 9 -95 20 -99 24 -5 4 2 36 14
71 14 42 23 94 24 151 2 48 6 92 10 98 3 5 2 10 -3 10 -14 0 -44 129 -45 197
-1 45 4 68 23 103 27 48 42 58 295 188 91 47 276 159 295 179 3 3 -38 4 -90 2
l-95 -4 -2 78 -2 77 72 0 c92 0 227 -16 294 -35 52 -15 117 -67 110 -89 -2 -6
-48 -41 -103 -78 -145 -97 -207 -156 -234 -222 -22 -54 -40 -72 -40 -40 0 17
-57 155 -69 167 -5 5 0 -38 10 -95 28 -150 29 -336 2 -410 -26 -70 -70 -137
-136 -205 -28 -29 -48 -55 -45 -58 3 -4 28 -12 54 -19 139 -38 418 -128 454
-146 30 -15 47 -33 61 -63 17 -38 19 -68 18 -317 0 -294 -3 -319 -52 -383 -19
-26 -47 -46 -84 -62 -2 -1 6 -62 17 -136 52 -350 90 -877 70 -964 -12 -54 -58
-95 -108 -95 -20 0 -77 12 -127 25 -165 46 -338 87 -556 131 -294 59 -314 61
-336 38 -77 -77 -503 -305 -828 -444 -346 -147 -829 -307 -1252 -413 l-202
-51 -138 32 c-428 97 -975 272 -1371 438 -286 120 -632 300 -788 408 -36 25
-71 46 -78 46 -7 0 -141 -27 -297 -60 -248 -53 -367 -81 -562 -136 -51 -14
-92 -11 -117 9 -46 36 -45 18 -50 605 l-5 555 -39 14 c-59 20 -106 61 -128
109 -17 41 -19 66 -16 350 l3 306 36 32 c24 23 66 43 130 64 95 31 453 122
482 122 9 0 15 8 14 19 0 11 -4 18 -8 15 -10 -5 -124 138 -148 184 -45 88 -52
236 -22 435 9 64 16 117 14 117 -3 0 -22 -38 -44 -85 -40 -88 -59 -106 -59
-56 0 53 -81 134 -237 238 -56 37 -102 75 -102 83 0 43 73 84 179 99 111 16
128 18 206 20 l72 1 6 -35z m1726 -50 c0 -5 -5 -3 -10 5 -5 8 -10 20 -10 25 0
6 5 3 10 -5 5 -8 10 -19 10 -25z m-20 -12 c0 -5 -5 -15 -10 -23 -8 -12 -10
-11 -10 8 0 12 5 22 10 22 6 0 10 -3 10 -7z m34 -20 c4 -10 4 -14 0 -10 -4 4
-14 1 -22 -6 -13 -11 -14 -9 -1 11 17 26 15 26 23 5z m-440 -110 c11 -122 122
-453 198 -591 16 -29 26 -58 22 -64 -4 -6 -3 -8 3 -5 14 9 37 -19 27 -34 -4
-7 -3 -9 4 -5 6 3 16 -2 22 -13 5 -11 6 -22 1 -25 -18 -12 -157 -28 -195 -23
-26 4 -35 2 -25 -4 12 -7 12 -9 -1 -9 -8 0 -76 -10 -150 -21 -74 -11 -170 -23
-212 -26 -49 -3 -75 -9 -71 -16 4 -6 -3 -8 -20 -3 -14 3 -29 2 -32 -4 -3 -5
-16 -10 -28 -9 -21 0 -21 1 -2 9 16 7 17 9 3 9 -9 1 -23 -5 -30 -12 -11 -11
-118 -39 -118 -31 0 13 88 241 127 329 95 218 235 429 386 583 81 82 80 82 91
-35z m3626 -18 c193 -226 294 -396 397 -675 38 -102 64 -183 60 -186 -6 -7
-103 20 -109 30 -4 6 -32 11 -63 12 -30 0 -58 4 -62 7 -3 4 -22 7 -42 7 -60 0
-141 12 -136 20 3 5 -3 6 -13 3 -10 -2 -47 1 -82 7 -36 6 -89 13 -119 16 -29
2 -58 7 -64 11 -5 3 -43 8 -83 9 -39 2 -81 7 -93 12 -20 7 -20 8 7 50 16 23
32 39 37 35 4 -5 5 -2 1 5 -4 6 1 24 12 40 11 15 27 44 37 65 9 20 21 37 24
37 4 0 8 6 8 13 1 6 20 62 43 122 49 128 110 359 110 415 0 21 3 46 6 54 8 22
18 14 124 -109z m-2445 44 c0 -5 5 -9 10 -10 17 -1 35 -21 29 -30 -3 -5 -2 -8
3 -7 12 4 73 -53 67 -63 -3 -5 -3 -9 0 -9 2 0 13 -3 23 -7 16 -6 17 -5 3 13
-14 19 -14 19 7 0 13 -10 20 -23 16 -29 -3 -6 -1 -7 6 -3 6 4 14 0 17 -8 3 -9
10 -14 14 -11 9 6 43 -31 46 -50 2 -11 -2 -12 -14 -5 -34 19 -177 144 -174
153 1 4 -2 6 -7 3 -11 -7 -33 18 -24 28 4 4 0 4 -8 1 -9 -3 -22 1 -29 9 -7 9
-16 13 -21 10 -5 -3 -9 -1 -9 5 0 12 33 32 40 24 3 -2 5 -9 5 -14z m-109 -44
c-36 -19 -45 -19 -20 0 10 8 26 14 34 15 8 0 2 -7 -14 -15z m-121 -55 c-3 -5
-12 -10 -18 -10 -7 0 -6 4 3 10 19 12 23 12 15 0z m-45 -20 c-8 -5 -19 -10
-25 -10 -5 0 -3 5 5 10 8 5 20 10 25 10 6 0 3 -5 -5 -10z m1111 -80 c19 -25
39 -50 44 -55 8 -9 75 -33 109 -39 9 -2 176 -322 176 -338 0 -6 -7 -8 -15 -4
-10 3 -15 -1 -15 -12 0 -13 -2 -14 -9 -3 -11 17 -38 17 -131 -2 -114 -24 -190
-28 -493 -30 -228 -2 -277 0 -277 12 0 16 37 154 91 340 21 74 39 136 39 139
0 2 33 2 74 0 41 -2 69 0 63 5 -7 5 2 5 21 2 33 -7 47 10 15 18 -10 2 8 7 39
11 31 5 62 5 69 1 7 -5 10 -4 5 3 -4 6 16 13 56 19 73 10 85 4 139 -67z
m-1191 46 c0 -3 -82 -38 -159 -67 -20 -7 -38 -23 -45 -40 -11 -27 -12 -27 -24
-9 -10 16 -9 18 5 13 12 -5 15 -2 10 9 -5 14 8 26 33 30 3 1 33 14 68 29 34
16 62 25 62 22 0 -4 5 -2 12 5 11 11 38 17 38 8z m-295 -143 c-39 -113 -62
-285 -37 -269 7 4 12 14 12 22 0 20 41 186 49 199 3 6 6 12 7 15 0 3 4 17 8
32 8 29 26 29 26 1 0 -33 -124 -393 -134 -390 -13 4 -140 226 -162 283 l-17
44 29 22 c23 19 116 77 234 147 8 5 17 7 18 6 2 -2 -13 -52 -33 -112z m350 86
c-16 -11 -66 -38 -110 -60 -44 -22 -90 -52 -102 -67 l-22 -26 10 44 c6 25 11
45 12 45 18 8 152 59 182 69 57 20 64 19 30 -5z m4391 -66 c-3 -7 -1 -13 4
-13 18 0 10 -26 -16 -50 -21 -21 -27 -22 -35 -10 -9 13 -10 12 -6 -2 5 -15
-27 -43 -88 -76 -19 -10 -21 -7 -23 38 l-2 49 72 56 c67 52 74 55 86 38 7 -9
10 -23 8 -30z m-7011 20 c0 -6 4 -15 9 -20 5 -5 6 -3 2 5 -13 22 12 13 29 -10
8 -13 19 -22 23 -20 4 1 19 -7 35 -18 29 -22 37 -66 15 -89 -10 -11 -10 -13 0
-7 14 8 17 -10 2 -19 -8 -5 -83 41 -142 88 -19 15 -25 67 -7 67 5 0 7 5 4 10
-3 6 -3 15 0 21 8 12 30 6 30 -8z m4878 -243 c-3 -11 -10 -23 -16 -27 -7 -4
-8 0 -4 11 4 10 7 24 7 32 0 9 4 13 9 10 5 -3 7 -15 4 -26z m-4697 -197 c4
-20 3 -42 -2 -50 -7 -10 -216 -113 -230 -113 -2 0 -6 16 -10 35 -8 43 10 91
42 112 31 20 132 52 166 52 23 1 28 -4 34 -36z m2149 -9 l40 -34 -31 0 c-17 0
-46 -3 -64 -7 -32 -6 -33 -5 -26 23 4 16 7 36 7 45 0 24 26 14 74 -27z m4594
13 c73 -27 101 -56 101 -104 0 -61 -11 -69 -56 -45 -22 12 -74 37 -118 57 -78
35 -78 35 -72 66 3 17 6 38 6 46 0 19 59 10 139 -20z m-2654 13 c19 -8 19 -9
-2 -9 -12 -1 -25 4 -28 9 -7 12 2 12 30 0z m72 -26 c-3 -3 -12 -4 -19 -1 -8 3
-5 6 6 6 11 1 17 -2 13 -5z m-683 -181 c-4 -10 -9 -66 -12 -125 l-4 -108 -264
0 -264 0 0 -145 0 -145 184 0 185 0 20 -26 c44 -56 46 -139 5 -185 -14 -16
-32 -19 -108 -19 -50 0 -135 -3 -189 -7 l-98 -6 3 -140 3 -141 216 3 c119 1
238 -1 263 -4 l47 -7 -3 -132 -3 -131 -355 -2 c-195 -1 -371 -4 -392 -7 -28
-3 -37 0 -40 13 -1 9 -2 309 0 668 l2 652 118 4 c64 1 247 4 406 5 271 2 288
1 280 -15z m462 -1 c10 -6 167 -341 238 -509 13 -32 47 -105 75 -163 l50 -105
0 378 1 379 48 -6 c26 -3 82 -8 126 -12 l79 -7 -8 -671 c-4 -369 -8 -672 -10
-674 -1 -2 -59 3 -128 9 l-126 13 -35 75 c-19 42 -89 202 -155 356 -66 154
-133 309 -150 345 l-30 65 0 -397 c-1 -218 -4 -398 -8 -400 -5 -2 -61 -2 -125
0 l-118 3 0 665 0 664 133 0 c72 0 137 -4 143 -8z m-1630 -59 c74 -25 154
-110 183 -193 28 -83 39 -256 22 -355 -35 -201 -118 -306 -271 -343 -37 -9
-274 -42 -302 -42 -4 0 -8 -92 -8 -204 l0 -203 -112 -13 c-62 -7 -118 -14
-125 -17 -11 -4 -13 116 -11 668 l3 674 105 12 c315 38 440 42 516 16z m-818
-718 l-3 -450 -32 -65 c-75 -154 -214 -236 -388 -228 -103 4 -166 34 -212 102
-57 84 -57 81 -59 606 -1 267 0 506 3 531 l4 46 98 17 c53 9 106 19 116 22 20
5 20 -3 17 -443 -2 -246 0 -472 3 -502 11 -89 64 -123 136 -86 16 9 39 30 49
48 19 31 20 54 20 528 l0 497 88 12 c48 7 103 15 122 19 l35 7 3 -106 c2 -58
2 -307 0 -555z m3710 641 c162 -43 295 -195 324 -368 16 -101 19 -99 -124 -96
l-123 3 -7 59 c-9 70 -32 113 -79 144 -45 31 -110 26 -146 -11 -33 -33 -40
-113 -39 -452 1 -231 3 -253 21 -284 40 -68 144 -92 197 -45 26 24 48 75 48
114 0 17 5 30 13 30 6 0 62 -26 122 -58 123 -64 127 -70 100 -151 -60 -180
-227 -266 -420 -216 -90 24 -135 47 -195 102 -64 58 -112 148 -130 238 -8 41
-10 175 -8 420 3 351 4 361 26 410 53 116 151 173 297 174 39 1 94 -6 123 -13z
m-4526 -223 c-3 -157 1 -149 -90 -168 -42 -9 -85 -19 -94 -22 -17 -4 -18 -42
-20 -561 l-3 -557 -100 -27 c-55 -14 -108 -27 -117 -27 -17 -1 -18 32 -18 557
l0 559 -82 -18 c-46 -10 -89 -19 -95 -19 -10 0 -13 30 -13 118 l0 118 193 47
c105 26 233 56 282 67 50 11 104 24 120 29 17 5 32 10 35 10 3 1 4 -47 2 -106z
m5420 63 c91 -22 93 -23 100 -57 51 -237 75 -356 117 -589 67 -369 136 -798
128 -806 -1 -1 -47 10 -101 25 -74 21 -101 33 -107 48 -4 10 -17 72 -29 136
-12 64 -27 120 -34 125 -12 10 -216 65 -221 60 -1 -2 -15 -58 -30 -125 -16
-68 -33 -123 -39 -123 -34 -1 -236 46 -236 55 0 5 18 84 41 175 91 369 270
1086 274 1098 3 8 13 11 25 7 11 -4 62 -17 112 -29z m-2153 -1225 l235 -8 23
-27 c23 -27 23 -27 23 -340 0 -345 3 -329 -65 -354 -37 -13 -776 -20 -1337
-12 l-388 5 -27 28 -28 27 -3 310 -3 310 25 25 c16 16 37 25 58 26 18 1 112 5
208 8 251 11 1004 11 1279 2z m1173 -157 l36 -6 -61 -55 c-65 -58 -171 -133
-189 -133 -5 0 -8 -7 -4 -15 4 -10 -3 -17 -22 -21 -15 -4 -46 -18 -70 -31 -36
-22 -45 -23 -59 -12 -9 8 -14 9 -10 3 9 -16 -19 -38 -38 -30 -9 3 -14 2 -11
-2 6 -9 -191 -82 -222 -82 -10 0 -32 -6 -48 -14 -16 -8 -47 -17 -69 -21 l-40
-6 48 25 c27 15 53 23 59 20 7 -4 8 -2 4 4 -4 7 -1 12 6 12 7 0 26 7 42 15 15
8 33 12 39 8 5 -3 7 -1 4 4 -4 6 8 17 26 24 17 7 65 33 106 57 40 24 80 41 88
38 8 -3 12 -2 8 3 -6 10 58 53 72 49 4 -2 8 1 8 5 0 5 17 16 38 26 20 9 34 21
30 25 -4 4 1 4 11 0 13 -5 17 -4 12 4 -3 6 4 18 16 26 31 22 46 20 20 -3 -12
-10 -19 -21 -15 -25 10 -9 25 -7 18 3 -3 5 0 13 6 17 6 3 15 0 20 -7 4 -7 11
-11 14 -7 4 3 -1 17 -10 31 -15 24 -15 26 6 41 17 12 26 13 36 4 11 -9 12 -13
1 -20 -9 -7 -6 -8 10 -5 12 3 22 1 22 -4 0 -5 4 -9 10 -9 5 0 7 7 4 15 -4 9
-1 15 7 15 8 0 5 6 -7 15 -10 8 -23 14 -29 15 -5 0 -3 -5 5 -10 9 -6 10 -10 3
-10 -15 0 -25 15 -16 24 8 8 37 8 85 0z m-3567 -14 c3 -5 11 -10 16 -10 6 0 7
5 3 11 -5 8 -1 8 14 0 11 -6 22 -15 24 -19 5 -14 236 -165 308 -202 88 -46 94
-51 78 -62 -9 -6 -6 -7 9 -3 27 7 87 -21 77 -37 -5 -7 -3 -8 5 -4 11 7 97 -28
111 -45 3 -3 12 -9 20 -12 13 -5 13 -6 0 -6 -8 -1 -28 6 -44 14 -15 8 -37 15
-48 15 -33 0 -98 22 -92 31 3 5 -3 8 -13 7 -27 -3 -104 22 -98 32 3 4 -3 6
-13 3 -11 -2 -26 2 -34 11 -9 8 -18 13 -21 10 -3 -3 -20 2 -38 11 -25 13 -29
19 -18 26 9 7 5 8 -13 3 -18 -4 -28 -2 -28 6 0 6 -4 8 -10 5 -5 -3 -20 4 -32
15 -13 12 -37 28 -54 36 -17 8 -40 24 -52 34 -11 10 -43 33 -71 50 -28 18 -51
35 -51 39 0 4 -12 14 -27 22 l-26 14 34 6 c54 10 77 10 84 -1z m3080 -20 c-3
-5 -12 -10 -18 -10 -7 0 -6 4 3 10 19 12 23 12 15 0z m-2718 -42 c-3 -8 -6 -5
-6 6 -1 11 2 17 5 13 3 -3 4 -12 1 -19z m2506 -3 c-3 -9 -8 -14 -10 -11 -3 3
-2 9 2 15 9 16 15 13 8 -4z m-2408 -15 c-3 -5 -12 -10 -18 -10 -7 0 -6 4 3 10
19 12 23 12 15 0z m-35 -22 c0 -4 -4 -8 -9 -8 -6 0 -12 4 -15 8 -3 5 1 9 9 9
8 0 15 -4 15 -9z m287 -294 c-3 -3 -12 -4 -19 -1 -8 3 -5 6 6 6 11 1 17 -2 13
-5z"/>
<path d="M5206 7432 c-2 -4 -1 -14 5 -22 7 -12 9 -10 9 8 0 23 -5 28 -14 14z"/>
<path d="M4807 8181 c6 -7 10 -19 9 -25 -2 -6 -1 -8 1 -3 10 16 21 5 16 -15
-3 -13 -2 -20 2 -16 11 11 15 59 4 52 -6 -3 -18 0 -27 7 -14 11 -15 11 -5 0z"/>
<path d="M4862 8140 c0 -14 2 -19 5 -12 2 6 2 18 0 25 -3 6 -5 1 -5 -13z"/>
<path d="M4514 7695 c0 -66 -3 -157 -7 -201 -6 -64 -5 -84 5 -95 8 -8 18 -23
23 -34 8 -19 9 -19 12 3 3 12 9 20 14 17 5 -4 9 2 10 12 0 16 1 16 9 -2 14
-33 11 111 -4 195 -8 41 -25 109 -38 150 l-25 75 1 -120z"/>
<path d="M3788 7683 c7 -3 16 -2 19 1 4 3 -2 6 -13 5 -11 0 -14 -3 -6 -6z"/>
<path d="M6470 7703 c12 -25 25 -29 36 -12 4 7 1 10 -7 7 -8 -3 -20 2 -27 11
-11 14 -11 13 -2 -6z"/>
<path d="M6820 7200 c-9 -6 -10 -10 -3 -10 6 0 15 5 18 10 8 12 4 12 -15 0z"/>
<path d="M5548 6983 c7 -3 16 -2 19 1 4 3 -2 6 -13 5 -11 0 -14 -3 -6 -6z"/>
<path d="M4239 6676 c-13 -13 -32 -39 -42 -58 l-18 -33 23 30 c12 17 34 40 47
53 13 12 22 24 19 27 -3 3 -16 -6 -29 -19z"/>
<path d="M4763 6575 c0 -22 2 -30 4 -17 2 12 2 30 0 40 -3 9 -5 -1 -4 -23z"/>
<path d="M3016 6333 c-6 -14 -5 -15 5 -6 7 7 10 15 7 18 -3 3 -9 -2 -12 -12z"/>
<path d="M7035 6410 c-3 -5 -1 -10 4 -10 6 0 11 5 11 10 0 6 -2 10 -4 10 -3 0
-8 -4 -11 -10z"/>
<path d="M4041 6483 c-17 -15 -19 -24 -13 -47 4 -16 13 -31 18 -33 17 -6 53
53 47 76 -7 26 -24 27 -52 4z m39 -22 c0 -5 -6 -14 -14 -20 -16 -13 -32 2 -21
19 8 12 35 13 35 1z"/>
<path d="M3997 6304 c-20 -17 -35 -23 -49 -18 -14 4 -18 2 -14 -5 12 -18 43
-13 73 13 15 13 26 27 23 29 -3 3 -18 -6 -33 -19z"/>
<path d="M5348 5783 c7 -3 16 -2 19 1 4 3 -2 6 -13 5 -11 0 -14 -3 -6 -6z"/>
<path d="M2410 5780 c0 -6 5 -8 10 -5 9 6 14 -14 11 -41 -1 -6 5 -17 13 -24
13 -10 14 -7 3 31 -11 39 -37 66 -37 39z"/>
<path d="M2310 5475 c13 -14 26 -25 28 -25 3 0 -5 11 -18 25 -13 14 -26 25
-28 25 -3 0 5 -11 18 -25z"/>
<path d="M2823 5312 c-8 -5 -7 -10 2 -19 6 -6 17 -8 24 -4 9 6 9 10 -1 19 -8
6 -19 8 -25 4z"/>
<path d="M7791 5804 c0 -11 3 -14 6 -6 3 7 2 16 -1 19 -3 4 -6 -2 -5 -13z"/>
<path d="M7788 5757 c-3 -19 -2 -25 4 -19 6 6 8 18 6 28 -3 14 -5 12 -10 -9z"/>
<path d="M7989 5563 c-13 -16 -12 -17 4 -4 9 7 17 15 17 17 0 8 -8 3 -21 -13z"/>
<path d="M7569 5453 c-13 -16 -12 -17 4 -4 16 13 21 21 13 21 -2 0 -10 -8 -17
-17z"/>
<path d="M7330 5216 c7 -7 13 -7 20 0 6 6 3 10 -10 10 -13 0 -16 -4 -10 -10z"/>
<path d="M6931 5864 c0 -11 3 -14 6 -6 3 7 2 16 -1 19 -3 4 -6 -2 -5 -13z"/>
<path d="M7041 5674 c-2 -20 21 -74 30 -74 6 0 6 7 0 18 -5 9 -14 28 -19 42
-6 14 -11 20 -11 14z"/>
<path d="M3371 6064 c0 -11 3 -14 6 -6 3 7 2 16 -1 19 -3 4 -6 -2 -5 -13z"/>
<path d="M3240 5977 c0 -2 6 -10 14 -16 11 -9 16 -9 22 1 4 7 4 10 -1 6 -4 -4
-14 -3 -22 3 -7 6 -13 9 -13 6z"/>
<path d="M5948 5383 c7 -3 16 -2 19 1 4 3 -2 6 -13 5 -11 0 -14 -3 -6 -6z"/>
<path d="M2447 5049 c7 -7 15 -10 18 -7 3 3 -2 9 -12 12 -14 6 -15 5 -6 -5z"/>
<path d="M2300 4770 c8 -5 20 -10 25 -10 6 0 3 5 -5 10 -8 5 -19 10 -25 10 -5
0 -3 -5 5 -10z"/>
<path d="M7774 4765 c-18 -14 -18 -14 4 -8 12 3 22 9 22 14 0 12 -3 11 -26 -6z"/>
<path d="M7780 4731 c0 -6 4 -13 10 -16 6 -3 7 1 4 9 -7 18 -14 21 -14 7z"/>
<path d="M3305 4946 c-12 -18 -13 -30 -6 -49 19 -50 94 -44 107 9 14 56 -69
89 -101 40z"/>
<path d="M3268 4743 c-20 -5 -29 -27 -33 -78 -3 -40 8 -65 29 -65 6 0 3 5 -6
11 -10 5 -18 17 -18 26 0 13 3 14 12 5 7 -7 29 -12 50 -12 62 0 86 60 42 105
-15 15 -41 17 -76 8z"/>
<path d="M3064 4695 c-24 -37 -2 -94 40 -96 16 -1 13 -3 -9 -9 l-30 -8 33 -1
c18 0 32 -6 32 -13 1 -8 6 -6 14 4 7 10 16 15 19 12 3 -3 3 3 0 14 -2 11 0 23
6 26 14 9 14 51 1 77 -17 30 -85 26 -106 -6z m86 -99 c0 -3 -4 -8 -10 -11 -5
-3 -10 -1 -10 4 0 6 5 11 10 11 6 0 10 -2 10 -4z"/>
<path d="M3040 4623 c0 -15 18 -35 23 -27 3 5 -1 15 -9 22 -8 7 -14 9 -14 5z"/>
<path d="M3177 4603 c3 -7 8 -13 12 -13 4 0 8 6 8 13 0 8 -6 14 -13 14 -7 0
-10 -6 -7 -14z"/>
<path d="M3222 4584 c10 -10 20 -16 22 -13 3 3 -5 11 -17 18 -21 13 -21 12 -5
-5z"/>
<path d="M3313 4593 c9 -2 23 -2 30 0 6 3 -1 5 -18 5 -16 0 -22 -2 -12 -5z"/>
<path d="M3190 4540 c8 -5 20 -10 25 -10 6 0 3 5 -5 10 -8 5 -19 10 -25 10 -5
0 -3 -5 5 -10z"/>
<path d="M3298 4543 c7 -3 16 -2 19 1 4 3 -2 6 -13 5 -11 0 -14 -3 -6 -6z"/>
<path d="M3277 4529 c7 -7 15 -10 18 -7 3 3 -2 9 -12 12 -14 6 -15 5 -6 -5z"/>
<path d="M2967 4513 c-4 -3 -7 -11 -7 -17 0 -6 5 -5 12 2 6 6 9 14 7 17 -3 3
-9 2 -12 -2z"/>
<path d="M6840 4950 c-11 -11 -20 -27 -20 -35 0 -22 37 -55 60 -55 23 0 60 33
60 55 0 22 -37 55 -60 55 -11 0 -29 -9 -40 -20z"/>
<path d="M6880 4721 c-5 -11 -10 -31 -10 -45 0 -13 -6 -27 -12 -30 -7 -3 -4
-4 7 -3 11 1 19 -2 18 -8 -1 -5 12 -11 29 -12 17 -1 36 -7 43 -13 10 -8 19 -8
34 2 24 15 26 24 9 34 -7 4 -10 4 -6 -1 9 -9 -9 -35 -24 -35 -5 0 0 13 11 29
41 57 21 101 -44 101 -34 0 -47 -5 -55 -19z"/>
<path d="M7058 4698 c-28 -28 -29 -57 -3 -80 11 -10 15 -17 10 -18 -6 0 -16 5
-21 10 -7 7 -19 4 -38 -11 -14 -11 -32 -19 -39 -16 -7 2 -21 1 -32 -3 -14 -5
-8 -8 22 -8 25 0 46 5 53 14 13 14 84 10 105 -7 7 -5 19 3 30 18 11 15 25 31
31 38 8 7 9 17 2 28 -5 10 -7 21 -4 26 7 11 -38 31 -69 31 -13 0 -34 -10 -47
-22z"/>
<path d="M6686 4697 c3 -10 9 -15 12 -12 3 3 0 11 -7 18 -10 9 -11 8 -5 -6z"/>
<path d="M6656 4673 c-6 -14 -5 -15 5 -6 7 7 10 15 7 18 -3 3 -9 -2 -12 -12z"/>
<path d="M6630 4619 c0 -5 -4 -8 -9 -5 -5 3 -8 -2 -7 -12 0 -9 -5 -16 -12 -14
-8 1 -11 -2 -7 -8 5 -8 11 -8 20 0 10 8 14 7 17 -2 3 -7 5 2 5 20 0 17 -2 32
-4 32 -1 0 -3 -5 -3 -11z"/>
<path d="M7153 4587 c-9 -20 -8 -23 11 -25 14 -1 16 2 8 7 -7 4 -10 15 -6 24
9 25 -1 20 -13 -6z"/>
<path d="M7020 4570 c-8 -5 -11 -12 -8 -16 4 -3 14 1 23 10 18 17 9 21 -15 6z"/>
<path d="M7286 4518 c-9 -36 -7 -41 9 -24 16 16 20 46 6 46 -5 0 -11 -10 -15
-22z"/>
<path d="M7330 4524 c0 -11 -5 -25 -12 -32 -9 -9 -9 -12 0 -12 13 0 28 47 18
57 -3 4 -6 -3 -6 -13z"/>
<path d="M4750 5150 c0 -5 5 -10 11 -10 5 0 7 5 4 10 -3 6 -8 10 -11 10 -2 0
-4 -4 -4 -10z"/>
<path d="M5185 5150 c19 -8 18 -9 -4 -9 -30 -1 -25 -6 14 -15 22 -5 26 -4 15
4 -12 8 -9 10 14 10 39 0 30 6 -19 13 -28 5 -34 4 -20 -3z"/>
<path d="M3870 4154 c-8 -1 -36 -6 -62 -9 l-48 -6 0 -221 0 -221 78 6 c42 3
93 11 112 18 48 16 97 64 116 115 21 55 16 194 -9 245 -29 60 -108 90 -187 73z"/>
<path d="M7861 3625 c-6 -44 -22 -133 -35 -198 -26 -135 -31 -125 67 -150 41
-11 57 -12 57 -4 0 14 -57 346 -69 397 -7 32 -8 29 -20 -45z"/>
<path d="M6898 2753 c7 -3 16 -2 19 1 4 3 -2 6 -13 5 -11 0 -14 -3 -6 -6z"/>
<path d="M6829 2673 c-13 -17 -13 -17 6 -3 11 8 22 16 24 17 2 2 0 3 -6 3 -6
0 -17 -8 -24 -17z"/>
<path d="M6716 2632 c-12 -11 -5 -39 9 -39 11 0 12 4 5 11 -17 17 -11 27 11
16 11 -6 25 -10 30 -8 5 2 -4 8 -20 15 -16 6 -32 8 -35 5z"/>
<path d="M6677 2590 c3 -11 7 -20 9 -20 2 0 4 9 4 20 0 11 -4 20 -9 20 -5 0
-7 -9 -4 -20z"/>
<path d="M6600 2580 c-10 -6 -11 -10 -2 -10 6 0 12 -6 12 -14 0 -8 -6 -16 -12
-19 -7 -2 1 -2 17 0 24 3 27 2 15 -7 -12 -9 -12 -11 -1 -8 8 2 15 12 17 21 1
9 -1 15 -4 13 -4 -2 -13 3 -21 11 -12 13 -11 14 10 8 18 -5 21 -4 9 4 -18 13
-21 13 -40 1z"/>
<path d="M6670 2556 c0 -2 7 -7 16 -10 8 -3 12 -2 9 4 -6 10 -25 14 -25 6z"/>
<path d="M6530 2509 c-30 -22 -23 -25 15 -5 14 8 23 16 18 19 -5 3 -20 -3 -33
-14z"/>
<path d="M6485 2510 c-3 -6 1 -7 9 -4 18 7 21 14 7 14 -6 0 -13 -4 -16 -10z"/>
<path d="M3300 2741 c-23 -7 -23 -8 13 -15 20 -4 37 -12 37 -17 0 -6 -10 -8
-22 -4 -19 5 -20 4 -6 -5 18 -11 52 -1 56 18 1 7 -8 12 -20 12 -19 0 -20 2 -8
10 12 8 11 10 -5 9 -11 -1 -31 -4 -45 -8z"/>
<path d="M3390 2730 c0 -5 5 -10 10 -10 6 0 10 5 10 10 0 6 -4 10 -10 10 -5 0
-10 -4 -10 -10z"/>
<path d="M3380 2679 c0 -9 82 -29 92 -23 4 3 8 10 8 16 0 6 -7 5 -17 -3 -15
-12 -16 -12 -11 2 6 14 0 17 -33 15 -21 0 -39 -4 -39 -7z"/>
<path d="M3487 2653 c-10 -10 -8 -23 4 -23 5 0 8 4 5 9 -4 5 0 12 6 14 7 3 8
6 2 6 -6 1 -14 -2 -17 -6z"/>
<path d="M3540 2625 c13 -14 26 -25 28 -25 3 0 -5 11 -18 25 -13 14 -26 25
-28 25 -3 0 5 -11 18 -25z"/>
<path d="M3430 2635 c0 -6 56 -35 67 -35 10 0 -27 25 -49 33 -10 4 -18 4 -18
2z"/>
<path d="M3598 2583 c6 -2 10 -8 8 -11 -2 -4 8 -8 22 -9 l27 -1 -25 14 c-14 7
-29 13 -35 13 -5 0 -4 -3 3 -6z"/>
<path d="M3710 2520 c0 -6 6 -10 13 -10 9 0 9 -2 -1 -9 -11 -7 -10 -10 3 -15
9 -3 23 -3 30 2 10 5 6 12 -16 24 -16 9 -29 13 -29 8z"/>
</g>
</svg>
